<svg width="35" height="35" viewBox="0 0 35 35" fill="none" xmlns="http://www.w3.org/2000/svg">
<rect width="35" height="35" rx="5" fill="white"/>
<path d="M18 18C16.625 18 15.4479 17.5104 14.4688 16.5312C13.4896 15.5521 13 14.375 13 13C13 11.625 13.4896 10.4479 14.4688 9.46875C15.4479 8.48958 16.625 8 18 8C19.375 8 20.5521 8.48958 21.5312 9.46875C22.5104 10.4479 23 11.625 23 13C23 14.375 22.5104 15.5521 21.5312 16.5312C20.5521 17.5104 19.375 18 18 18ZM8 28V24.5C8 23.7917 8.1825 23.1408 8.5475 22.5475C8.9125 21.9542 9.39667 21.5008 10 21.1875C11.2917 20.5417 12.6042 20.0575 13.9375 19.735C15.2708 19.4125 16.625 19.2508 18 19.25C19.375 19.2492 20.7292 19.4108 22.0625 19.735C23.3958 20.0592 24.7083 20.5433 26 21.1875C26.6042 21.5 27.0887 21.9533 27.4538 22.5475C27.8188 23.1417 28.0008 23.7925 28 24.5V28H8Z" fill="black"/>
</svg>
