<svg width="35" height="35" viewBox="0 0 35 35" fill="none" xmlns="http://www.w3.org/2000/svg">
<rect width="35" height="35" rx="5" fill="white"/>
<path d="M18 26C20.1217 26 22.1566 25.1571 23.6569 23.6569C25.1571 22.1566 26 20.1217 26 18C26 15.8783 25.1571 13.8434 23.6569 12.3431C22.1566 10.8429 20.1217 10 18 10C15.8783 10 13.8434 10.8429 12.3431 12.3431C10.8429 13.8434 10 15.8783 10 18C10 20.1217 10.8429 22.1566 12.3431 23.6569C13.8434 25.1571 15.8783 26 18 26ZM18 8C19.3132 8 20.6136 8.25866 21.8268 8.7612C23.0401 9.26375 24.1425 10.0003 25.0711 10.9289C25.9997 11.8575 26.7362 12.9599 27.2388 14.1732C27.7413 15.3864 28 16.6868 28 18C28 20.6522 26.9464 23.1957 25.0711 25.0711C23.1957 26.9464 20.6522 28 18 28C12.47 28 8 23.5 8 18C8 15.3478 9.05357 12.8043 10.9289 10.9289C12.8043 9.05357 15.3478 8 18 8ZM18.5 13V18.25L23 20.92L22.25 22.15L17 19V13H18.5Z" fill="#8E51FF"/>
</svg>
